<?xml version="1.0" encoding="utf-8" ?>
<svg xmlns="http://www.w3.org/2000/svg" xmlns:xlink="http://www.w3.org/1999/xlink" width="2361" height="2361">
	<path fill="#365069" transform="scale(2.30601 2.30601)" d="M239.962 719.923C194 657.147 169.972 592.063 169.65 513.89C169.563 492.681 170.902 472.2 174.166 451.219Q174.824 447.146 175.581 443.091Q176.337 439.035 177.191 434.999Q178.045 430.963 178.997 426.949Q179.948 422.935 180.995 418.945Q182.043 414.954 183.187 410.991Q184.33 407.027 185.569 403.092Q186.808 399.157 188.142 395.253Q189.475 391.349 190.902 387.478Q192.329 383.608 193.849 379.772Q195.37 375.937 196.982 372.14Q198.594 368.343 200.297 364.585Q202.001 360.828 203.794 357.113Q205.587 353.397 207.47 349.727Q209.352 346.056 211.323 342.431Q213.293 338.807 215.351 335.231Q217.408 331.655 219.551 328.13Q221.694 324.605 223.921 321.132Q226.149 317.66 228.459 314.242Q230.77 310.824 233.162 307.464Q235.554 304.102 238.027 300.8Q240.499 297.498 243.051 294.256Q245.603 291.014 248.231 287.835Q250.86 284.656 253.565 281.541Q256.27 278.426 259.049 275.377Q261.829 272.328 264.681 269.348Q267.533 266.367 270.456 263.455Q273.379 260.544 276.371 257.704Q279.363 254.865 282.423 252.098Q285.483 249.331 288.609 246.638Q291.735 243.946 294.925 241.33Q298.115 238.714 301.367 236.176Q304.619 233.637 307.931 231.178Q311.368 228.685 314.865 226.277Q318.362 223.869 321.916 221.547Q325.471 219.225 329.082 216.991Q332.693 214.758 336.357 212.613Q340.021 210.468 343.737 208.414Q347.453 206.36 351.218 204.398Q354.983 202.435 358.795 200.566Q362.608 198.696 366.464 196.921Q370.321 195.145 374.22 193.465Q378.12 191.784 382.059 190.2Q385.998 188.616 389.975 187.129Q393.952 185.642 397.964 184.252Q401.976 182.863 406.021 181.573Q410.066 180.282 414.141 179.091Q418.217 177.9 422.32 176.81Q426.424 175.719 430.552 174.73Q434.681 173.74 438.833 172.852Q442.985 171.964 447.158 171.178Q451.33 170.392 455.521 169.708Q459.711 169.025 463.917 168.444Q468.123 167.864 472.342 167.386Q476.561 166.909 480.79 166.535Q485.02 166.162 489.257 165.892Q493.494 165.622 497.737 165.456Q501.979 165.29 506.225 165.229Q510.47 165.167 514.716 165.209Q518.962 165.251 523.205 165.398Q527.448 165.544 531.687 165.795Q535.925 166.045 540.156 166.399Q544.387 166.753 548.608 167.211Q552.829 167.669 557.038 168.23Q561.246 168.792 565.44 169.456Q569.592 170.077 573.727 170.803Q577.863 171.528 581.979 172.356Q586.094 173.185 590.188 174.116Q594.282 175.047 598.351 176.08Q602.421 177.113 606.463 178.248Q610.505 179.382 614.517 180.618Q618.53 181.853 622.51 183.189Q626.491 184.524 630.436 185.959Q634.382 187.393 638.291 188.926Q642.199 190.459 646.068 192.089Q649.937 193.719 653.764 195.445Q657.591 197.172 661.374 198.993Q665.156 200.815 668.892 202.73Q672.628 204.646 676.315 206.655Q680.002 208.663 683.637 210.763Q687.273 212.863 690.854 215.053Q694.436 217.244 697.962 219.523Q701.488 221.802 704.955 224.169Q708.423 226.536 711.831 228.988Q715.238 231.441 718.583 233.978Q721.928 236.516 725.208 239.136Q728.489 241.756 731.703 244.457Q734.917 247.158 738.062 249.939Q741.207 252.72 744.282 255.579Q747.357 258.438 750.359 261.372Q753.362 264.307 756.29 267.316Q759.218 270.325 762.069 273.406Q764.921 276.487 767.695 279.639Q770.469 282.79 773.163 286.01Q775.857 289.23 778.47 292.516Q781.083 295.803 783.612 299.153Q786.142 302.504 788.587 305.917Q791.073 309.341 793.475 312.825Q795.877 316.309 798.193 319.851Q800.51 323.393 802.738 326.99Q804.967 330.588 807.107 334.239Q809.247 337.889 811.298 341.591Q813.348 345.293 815.307 349.044Q817.266 352.795 819.133 356.593Q821 360.391 822.773 364.233Q824.547 368.076 826.225 371.96Q827.904 375.845 829.488 379.769Q831.071 383.694 832.558 387.656Q834.045 391.618 835.435 395.615Q836.825 399.612 838.116 403.642Q839.408 407.672 840.6 411.732Q841.793 415.792 842.886 419.881Q843.979 423.969 844.972 428.083Q845.964 432.197 846.856 436.333Q847.748 440.47 848.538 444.628Q849.329 448.785 850.017 452.96Q850.706 457.136 851.292 461.327Q851.878 465.518 852.362 469.722Q852.845 473.926 853.226 478.141Q853.606 482.356 853.884 486.578Q854.161 490.801 854.335 495.029Q854.509 499.258 854.58 503.489Q854.651 507.72 854.618 511.952Q854.585 516.183 854.449 520.413Q854.312 524.643 854.073 528.868Q853.833 533.093 853.49 537.311Q853.147 541.529 852.701 545.737Q852.255 549.945 851.707 554.141Q851.158 558.338 850.507 562.519Q849.815 566.74 849.02 570.943Q848.225 575.146 847.328 579.328Q846.431 583.511 845.433 587.67Q844.434 591.829 843.334 595.963Q842.234 600.097 841.034 604.202Q839.833 608.308 838.533 612.383Q837.233 616.458 835.833 620.5Q834.434 624.542 832.937 628.549Q831.439 632.556 829.845 636.525Q828.25 640.494 826.559 644.423Q824.868 648.352 823.082 652.239Q821.295 656.126 819.414 659.968Q817.534 663.809 815.56 667.604Q813.586 671.399 811.52 675.145Q809.455 678.89 807.298 682.584Q805.142 686.279 802.896 689.919Q800.65 693.559 798.315 697.144Q795.981 700.728 793.56 704.255Q791.14 707.781 788.633 711.248Q786.127 714.714 783.537 718.119Q780.947 721.523 778.275 724.863Q775.603 728.203 772.85 731.477Q770.097 734.751 767.265 737.956Q764.433 741.162 761.524 744.298Q758.614 747.434 755.629 750.498Q752.645 753.561 749.586 756.552Q746.527 759.542 743.396 762.456Q740.265 765.371 737.064 768.208Q733.864 771.046 730.594 773.804Q727.325 776.563 723.99 779.241Q720.654 781.918 717.254 784.514Q713.854 787.11 710.392 789.622Q706.999 792.096 703.546 794.484Q700.093 796.873 696.581 799.174Q693.069 801.476 689.5 803.689Q685.932 805.902 682.309 808.024Q678.686 810.147 675.012 812.179Q671.337 814.211 667.613 816.15Q663.888 818.089 660.117 819.934Q656.345 821.78 652.529 823.53Q648.712 825.281 644.853 826.935Q640.994 828.589 637.094 830.147Q633.195 831.704 629.258 833.164Q625.321 834.623 621.348 835.984Q617.376 837.344 613.371 838.605Q609.366 839.866 605.33 841.026Q601.295 842.186 597.232 843.245Q593.169 844.304 589.08 845.261Q584.992 846.218 580.881 847.073Q576.77 847.927 572.639 848.678Q568.508 849.43 564.359 850.077Q560.21 850.725 556.047 851.269Q551.883 851.813 547.707 852.253Q543.532 852.692 539.346 853.027Q535.161 853.362 530.968 853.592Q526.775 853.823 522.578 853.948Q518.381 854.073 514.183 854.094Q509.984 854.114 505.786 854.029Q501.588 853.944 497.393 853.755Q493.199 853.565 489.01 853.271Q484.821 852.976 480.642 852.577Q476.462 852.178 472.293 851.674Q468.125 851.171 463.97 850.563Q459.815 849.955 455.677 849.244C391.671 838.867 323.268 805.302 277.337 759.279C273.342 761.375 269.785 763.14 265.328 764.049C258.242 765.495 250.922 764.502 244.879 760.343Q244.34 759.965 243.819 759.56Q243.299 759.156 242.799 758.727Q242.3 758.297 241.822 757.844Q241.344 757.39 240.889 756.914Q240.433 756.438 240.002 755.94Q239.571 755.441 239.165 754.923Q238.759 754.404 238.378 753.866Q237.998 753.328 237.645 752.772Q237.291 752.216 236.966 751.643Q236.64 751.07 236.343 750.482Q236.046 749.894 235.778 749.292Q235.51 748.69 235.272 748.076Q235.034 747.462 234.826 746.836Q234.619 746.211 234.442 745.576Q234.266 744.941 234.121 744.299Q233.975 743.656 233.862 743.007C232.291 734.323 235.189 726.948 239.962 719.923ZM293.864 742.808Q295.922 744.796 298.015 746.747Q300.109 748.697 302.238 750.609Q304.367 752.521 306.531 754.393Q308.695 756.266 310.892 758.098Q313.09 759.931 315.321 761.723Q317.552 763.515 319.815 765.265Q322.079 767.016 324.374 768.725Q326.669 770.434 328.995 772.101Q331.321 773.767 333.677 775.391Q336.033 777.015 338.419 778.595Q340.804 780.175 343.219 781.711Q345.633 783.248 348.074 784.739Q350.516 786.231 352.985 787.678Q355.454 789.125 357.949 790.526Q360.443 791.927 362.964 793.283Q365.484 794.638 368.028 795.947Q370.573 797.256 373.141 798.518Q375.709 799.78 378.3 800.995Q380.891 802.21 383.503 803.377Q386.116 804.544 388.749 805.663Q391.383 806.782 394.037 807.853Q396.69 808.923 399.363 809.945Q402.036 810.967 404.727 811.939Q407.418 812.912 410.126 813.835Q412.835 814.758 415.56 815.632Q418.285 816.505 421.025 817.329Q423.766 818.152 426.521 818.925Q429.276 819.698 432.044 820.42Q434.813 821.142 437.595 821.814Q440.376 822.485 443.17 823.106Q445.963 823.726 448.767 824.295Q451.572 824.864 454.386 825.382Q458.204 826.09 462.038 826.703Q465.872 827.317 469.721 827.836Q473.569 828.356 477.428 828.781Q481.288 829.206 485.157 829.536Q489.026 829.866 492.902 830.101Q496.778 830.336 500.658 830.475Q504.539 830.615 508.422 830.66Q512.304 830.704 516.187 830.654Q520.07 830.603 523.95 830.457Q527.83 830.311 531.706 830.07Q535.582 829.829 539.45 829.493Q543.318 829.157 547.177 828.726Q551.037 828.295 554.884 827.769Q558.731 827.244 562.564 826.624Q566.398 826.004 570.215 825.291Q574.031 824.577 577.83 823.77Q581.628 822.963 585.405 822.063Q589.182 821.163 592.937 820.171Q596.691 819.179 600.419 818.095Q604.148 817.01 607.849 815.835Q611.55 814.66 615.221 813.394Q618.892 812.128 622.53 810.773Q626.169 809.417 629.773 807.973Q633.378 806.529 636.946 804.996Q640.514 803.464 644.043 801.845Q647.572 800.225 651.061 798.52Q654.549 796.814 657.995 795.024Q661.44 793.233 664.841 791.359Q668.241 789.484 671.595 787.527Q674.948 785.569 678.253 783.53Q681.557 781.491 684.811 779.371Q688.065 777.252 691.265 775.053Q694.568 772.74 697.814 770.347Q701.06 767.954 704.246 765.483Q707.433 763.011 710.558 760.463Q713.683 757.914 716.745 755.29Q719.806 752.666 722.803 749.967Q725.8 747.269 728.73 744.498Q731.66 741.728 734.521 738.886Q737.382 736.045 740.174 733.134Q742.965 730.224 745.684 727.246Q748.403 724.268 751.048 721.225Q753.694 718.181 756.264 715.074Q758.835 711.967 761.328 708.798Q763.822 705.629 766.238 702.4Q768.653 699.171 770.989 695.884Q773.325 692.597 775.58 689.254Q777.835 685.91 780.007 682.513Q782.18 679.116 784.268 675.667Q786.357 672.217 788.361 668.718Q790.365 665.218 792.283 661.671Q794.201 658.124 796.031 654.531Q797.862 650.938 799.604 647.301Q801.346 643.664 802.999 639.986Q804.652 636.308 806.214 632.59Q807.777 628.873 809.248 625.118Q810.719 621.363 812.098 617.574Q813.477 613.785 814.763 609.963Q816.049 606.141 817.241 602.288Q818.433 598.436 819.531 594.556Q820.629 590.676 821.631 586.77Q822.634 582.864 823.54 578.935Q824.447 575.005 825.258 571.055Q826.068 567.105 826.782 563.136Q827.442 559.287 828.01 555.424Q828.577 551.56 829.05 547.684Q829.523 543.808 829.903 539.922Q830.282 536.035 830.567 532.141Q830.852 528.246 831.043 524.346Q831.233 520.446 831.329 516.542Q831.425 512.638 831.427 508.733Q831.428 504.828 831.335 500.924Q831.242 497.021 831.054 493.12Q830.867 489.22 830.584 485.325Q830.302 481.43 829.926 477.544Q829.549 473.657 829.079 469.78Q828.609 465.904 828.044 462.04Q827.48 458.176 826.822 454.327Q826.165 450.478 825.414 446.646Q824.663 442.814 823.82 439.001Q822.977 435.188 822.041 431.397Q821.106 427.606 820.079 423.838Q819.052 420.071 817.934 416.329Q816.816 412.588 815.607 408.875Q814.399 405.161 813.101 401.479Q811.803 397.796 810.416 394.145Q809.029 390.495 807.555 386.879Q806.08 383.264 804.518 379.685Q802.956 376.106 801.308 372.566Q799.659 369.026 797.926 365.527Q796.193 362.027 794.375 358.571Q792.557 355.115 790.656 351.704Q788.755 348.293 786.772 344.93Q784.789 341.566 782.725 338.251Q780.661 334.936 778.518 331.672Q776.374 328.408 774.152 325.197Q771.955 321.985 769.678 318.829Q767.402 315.672 765.047 312.574Q762.693 309.475 760.262 306.436Q757.832 303.397 755.326 300.419Q752.82 297.442 750.241 294.527Q747.663 291.613 745.012 288.764Q742.361 285.915 739.64 283.132Q736.92 280.35 734.131 277.636Q731.341 274.922 728.485 272.279Q725.63 269.635 722.709 267.063Q719.788 264.492 716.804 261.993Q713.82 259.495 710.775 257.072Q707.73 254.649 704.626 252.302Q701.521 249.956 698.359 247.687Q695.197 245.419 691.98 243.229Q688.762 241.04 685.492 238.932Q682.221 236.823 678.898 234.797Q675.576 232.771 672.204 230.827Q668.832 228.884 665.413 227.026Q661.994 225.167 658.53 223.394Q655.066 221.622 651.558 219.935Q648.051 218.249 644.503 216.651Q640.955 215.053 637.368 213.543Q633.781 212.034 630.157 210.614Q626.534 209.194 622.876 207.865Q619.219 206.536 615.529 205.298Q611.84 204.061 608.121 202.915Q604.402 201.77 600.655 200.717Q596.909 199.665 593.137 198.706Q589.365 197.747 585.571 196.882Q581.777 196.017 577.962 195.247Q574.148 194.477 570.315 193.802Q566.366 193.074 562.401 192.443Q558.435 191.813 554.455 191.281Q550.475 190.75 546.483 190.317Q542.491 189.884 538.489 189.551Q534.488 189.217 530.479 188.983Q526.47 188.749 522.457 188.614Q518.444 188.48 514.429 188.445Q510.413 188.41 506.399 188.475Q502.384 188.539 498.372 188.704Q494.359 188.868 490.353 189.132Q486.346 189.396 482.347 189.759Q478.348 190.122 474.359 190.585Q470.371 191.047 466.395 191.608Q462.419 192.169 458.458 192.829Q454.497 193.489 450.554 194.246Q446.61 195.004 442.687 195.859Q438.764 196.715 434.863 197.667Q430.962 198.62 427.086 199.669Q423.21 200.718 419.361 201.863Q415.513 203.007 411.694 204.247Q407.874 205.487 404.087 206.822Q400.3 208.156 396.547 209.584Q392.794 211.012 389.078 212.533Q385.361 214.053 381.684 215.666Q378.006 217.278 374.37 218.982Q370.734 220.685 367.141 222.478Q363.548 224.271 360.001 226.152Q356.453 228.034 352.954 230.002Q349.454 231.971 346.005 234.027Q342.555 236.082 339.157 238.222Q335.76 240.362 332.417 242.586Q329.073 244.81 325.786 247.116C257.622 294.556 211.667 371.005 197.162 452.309Q196.562 455.603 196.031 458.909Q195.5 462.215 195.037 465.531Q194.575 468.847 194.182 472.172Q193.789 475.497 193.465 478.829Q193.141 482.162 192.886 485.5Q192.631 488.839 192.446 492.182Q192.261 495.525 192.146 498.871Q192.03 502.218 191.984 505.565Q191.938 508.913 191.962 512.261Q191.986 515.61 192.079 518.957Q192.172 522.303 192.335 525.648Q192.498 528.992 192.73 532.332Q192.963 535.672 193.265 539.007Q193.567 542.341 193.938 545.669Q194.309 548.996 194.749 552.316Q195.189 555.635 195.699 558.944Q196.208 562.253 196.786 565.551Q197.364 568.849 198.01 572.134Q198.656 575.42 199.371 578.691Q200.086 581.962 200.868 585.217Q201.651 588.473 202.501 591.711Q203.351 594.95 204.268 598.17Q205.185 601.39 206.169 604.59Q207.153 607.791 208.203 610.97Q209.253 614.149 210.37 617.306Q211.486 620.462 212.667 623.595Q213.849 626.728 215.095 629.836Q216.342 632.943 217.653 636.024Q218.964 639.105 220.338 642.158Q221.713 645.211 223.151 648.235Q224.589 651.258 226.089 654.251Q227.59 657.245 229.152 660.206C237.143 675.206 246.955 689.303 256.665 703.225L328.832 630.897L447.596 512.115L510.602 448.882L531.26 428.077C535.03 424.286 538.724 420.189 542.789 416.729C546.925 413.207 552.016 411.149 557.47 411.114C562.919 411.08 568.002 413.117 571.79 417.057C575.988 421.424 578.866 428.261 578.513 434.341C578.293 438.144 576.793 441.202 574.515 444.191C569.008 451.415 561.818 457.943 555.574 464.563L518.522 504.128L350.599 682.443Q331.487 702.961 312.159 723.275C306.173 729.608 299.218 735.962 293.864 742.808Z"/>
	<path fill="#F2AB37" transform="scale(2.30601 2.30601)" d="M613.881 269.03C615.311 268.975 617.026 268.767 618.353 269.375C622.383 271.222 624.614 293.661 625.996 298.788C631.155 317.932 646.968 333.354 664.925 340.896C670.845 343.383 677.639 344.532 683.175 347.786C683.83 348.171 683.946 348.825 684.073 349.561C684.387 351.366 683.263 354.129 681.776 355.124C679.261 356.805 674.34 356.864 671.333 357.573C661.333 359.932 651.396 365.763 643.816 372.611C620.103 394.036 626.736 421.996 617.915 431.855C615.9 432.063 613.177 432.497 611.679 430.781C608.05 426.624 605.311 406.499 603.515 400.01C602.35 395.8 600.825 391.79 598.777 387.926C591.459 374.124 578.009 364.37 563.503 359.317C559.008 357.752 552.865 356.294 549.278 353.074C548.211 352.116 547.795 351.326 547.767 349.86C547.739 348.388 548.612 346.381 549.827 345.581C552.797 343.625 557.439 343.273 560.849 342.269C571.043 339.267 581.693 333.358 589.241 325.833C595.606 319.487 600.414 312.16 603.516 303.71C606.793 294.783 607.833 278.602 611.135 271.988C611.741 270.773 612.858 269.885 613.881 269.03Z"/>
	<path fill="#F2AB37" transform="scale(2.30601 2.30601)" d="M714.399 386.959C715.165 387.056 715.711 387.138 716.328 387.661C717.505 388.656 717.823 389.896 717.856 391.352C718.292 410.656 743.219 415.144 745.724 422.744C746.499 425.097 744.701 427.693 743.572 429.627C739.459 430.536 734.988 432.242 731.172 434.042C722.288 438.234 720.649 443.398 717.459 452.002C715.746 456.619 713.091 458.833 708.705 460.869C708.18 460.778 707.478 460.68 706.987 460.482C702.55 458.684 707.356 449.422 704.549 444.166C700.364 436.333 690.01 433.988 682.221 431.414C681.064 428.768 679.303 426.431 678.21 423.794C677.946 423.156 677.464 422.426 677.822 421.771C679.604 418.514 686.061 415.558 689.107 413.182Q692.823 410.226 696.037 406.731C701.248 400.948 703.577 391.064 709.252 389.089C711.036 388.468 712.686 387.752 714.399 386.959Z"/>
	<path fill="#F2AB37" transform="scale(2.30601 2.30601)" d="M503.625 328.516C515.684 327.635 509.335 337.203 515.875 341.811C519.39 344.287 524.383 344.138 527.631 347.162C528.733 348.187 529.473 349.674 529.381 351.211C529.077 356.264 518.39 358.313 515.369 361.699C512.85 364.523 513.376 369.328 510.826 372.163C510.277 372.773 509.632 373.289 508.983 373.785C507.559 374.162 505.941 374.577 504.473 374.229C499.045 372.941 498.209 364.553 495.172 360.522C495.057 360.369 494.937 360.22 494.82 360.069C490.884 358.417 486.071 357.462 483.743 353.479C482.99 352.191 482.713 350.588 483.313 349.176C484.938 345.351 490.069 344.235 493.594 343.086C498.281 338.637 497.562 331.4 503.625 328.516Z"/>
	<path fill="#F2AB37" transform="scale(2.30601 2.30601)" d="M531.032 252.539C533.902 252.533 536.635 253.133 539.166 254.512Q539.819 254.867 540.433 255.285Q541.047 255.704 541.616 256.182Q542.185 256.661 542.703 257.194Q543.221 257.726 543.683 258.309Q544.145 258.891 544.546 259.517Q544.947 260.143 545.283 260.806Q545.62 261.469 545.887 262.162Q546.155 262.855 546.352 263.572C547.299 266.912 547.182 270.713 545.421 273.774C542.985 278.01 538.645 279.785 534.12 280.945C531.492 281.906 527.987 281.173 525.524 280.006C522.449 278.548 520.226 275.534 519.213 272.341C517.927 268.288 518.292 263.543 520.363 259.809C522.804 255.409 526.449 253.841 531.032 252.539Z"/>
	<path fill="#F2AB37" transform="scale(2.30601 2.30601)" d="M645.539 476.112C649.008 475.823 652.193 476.029 655.171 478.021C658.477 480.232 660.674 483.866 661.431 487.743Q661.573 488.443 661.645 489.153Q661.716 489.864 661.716 490.578Q661.716 491.292 661.645 492.003Q661.573 492.713 661.431 493.413Q661.288 494.112 661.076 494.794Q660.864 495.476 660.585 496.134Q660.305 496.791 659.962 497.417Q659.618 498.043 659.213 498.631Q658.819 499.192 658.369 499.711Q657.92 500.229 657.42 500.699Q656.921 501.17 656.376 501.587Q655.831 502.004 655.247 502.363Q654.662 502.723 654.044 503.021Q653.427 503.319 652.782 503.553Q652.137 503.787 651.471 503.955Q650.806 504.122 650.127 504.221C647.148 504.142 644.4 503.716 641.644 502.525C638.109 500.996 635.117 498.232 633.847 494.541C632.715 491.251 632.901 487.521 634.51 484.416C636.741 480.115 641.073 477.564 645.539 476.112Z"/>
	<path fill="#112F46" transform="scale(2.30601 2.30601)" d="M256.665 703.225L328.832 630.897L447.596 512.115L510.602 448.882L531.26 428.077C535.03 424.286 538.724 420.189 542.789 416.729C546.925 413.207 552.016 411.149 557.47 411.114C562.919 411.08 568.002 413.117 571.79 417.057C575.988 421.424 578.866 428.261 578.513 434.341C578.293 438.144 576.793 441.202 574.515 444.191C569.008 451.415 561.818 457.943 555.574 464.563L518.522 504.128L350.599 682.443Q331.487 702.961 312.159 723.275C306.173 729.608 299.218 735.962 293.864 742.808C288.418 748.347 283.047 754.011 277.337 759.279C273.342 761.375 269.785 763.14 265.328 764.049C258.242 765.495 250.922 764.502 244.879 760.343Q244.34 759.965 243.819 759.56Q243.299 759.156 242.799 758.727Q242.3 758.297 241.822 757.844Q241.344 757.39 240.889 756.914Q240.433 756.438 240.002 755.94Q239.571 755.441 239.165 754.923Q238.759 754.404 238.378 753.866Q237.998 753.328 237.645 752.772Q237.291 752.216 236.966 751.643Q236.64 751.07 236.343 750.482Q236.046 749.894 235.778 749.292Q235.51 748.69 235.272 748.076Q235.034 747.462 234.826 746.836Q234.619 746.211 234.442 745.576Q234.266 744.941 234.121 744.299Q233.975 743.656 233.862 743.007C232.291 734.323 235.189 726.948 239.962 719.923C245.508 716.354 252.459 708.392 256.665 703.225Z"/>
	<path fill="#365069" transform="scale(2.30601 2.30601)" d="M255.934 733.051C255.017 733.742 254.434 734.727 253.763 735.651C252.293 732.045 249.926 727.977 251.072 723.938C251.727 721.629 253.879 719.521 255.524 717.833C274.161 698.709 293.225 679.929 312.054 660.987L434.378 538.243Q456.455 515.837 478.991 493.892C483.63 489.31 490.622 480.567 496.122 477.54C497.574 476.741 498.601 476.51 500.249 476.942C501.712 478.036 502.168 479.336 502.881 480.98C503.01 483.914 502.12 484.865 500.192 486.989C496.581 490.967 492.366 494.494 488.575 498.32L457.097 529.993L372.836 614.993L313.23 675.558L296.395 692.501C293.744 695.16 290.966 698.46 287.985 700.703Q277.65 711.424 267.204 722.036C263.719 725.591 259.963 730.167 255.934 733.051Z"/>
	<path fill="#536B80" transform="scale(2.30601 2.30601)" d="M502.881 480.98C503.01 483.914 502.12 484.865 500.192 486.989C496.581 490.967 492.366 494.494 488.575 498.32L457.097 529.993L372.836 614.993L313.23 675.558L296.395 692.501C293.744 695.16 290.966 698.46 287.985 700.703Q277.65 711.424 267.204 722.036C263.719 725.591 259.963 730.167 255.934 733.051L255.497 732.944L254.434 732.495C253.852 731.458 253.642 731.243 253.948 730.016C254.724 726.901 259.19 722.61 261.389 720.312C269.654 711.674 278.529 703.469 286.94 694.943L386.14 595.465C414.674 567.011 442.658 538.023 471.363 509.728C478.869 502.329 494.314 485.31 502.881 480.98Z"/>
	<path fill="#365069" transform="scale(2.30601 2.30601)" d="M544.714 433.426C544.778 433.21 544.836 432.991 544.906 432.777C546.035 429.308 550.58 424.625 553.921 423.198C556.076 422.278 558.567 422.366 560.695 423.321C563.121 424.408 565.101 426.463 565.952 428.994C566.789 431.482 566.366 434.259 565.173 436.561C561.599 443.454 526.408 476.874 518.824 484.438C517.192 480.14 515.199 474.853 511.223 472.205L510.775 472.153C509.619 471.3 508.997 471.111 508.57 469.71C510.556 463.175 538.274 438.939 544.714 433.426Z"/>
	<path fill="#84959D" transform="scale(2.30601 2.30601)" d="M544.714 433.426C548.329 431.185 552.905 427.54 557.195 427.293L558.216 427.832C558.551 429.134 558.578 429.221 558.1 430.471C555.66 432.64 552.631 433.916 549.959 435.777C545.72 438.73 541.799 442.143 537.962 445.595C531.976 450.981 526.317 456.75 520.69 462.507C517.541 465.729 514.4 469.469 510.775 472.153C509.619 471.3 508.997 471.111 508.57 469.71C510.556 463.175 538.274 438.939 544.714 433.426Z"/>
</svg>
